<?xml version="1.0" encoding="UTF-8" standalone="no"?>
<!-- Created with Inkscape (http://www.inkscape.org/) -->
<svg version="1.1" id="svg5" width="572.09192" height="576.7616" viewBox="0 0 572.09192 576.7616" xmlns="http://www.w3.org/2000/svg" xmlns:svg="http://www.w3.org/2000/svg">
  <defs id="defs2"/>
  <path id="path953" d="M 1.3123756,205.12384 V 434.41268 H 30.109067 c 19.24836,0 33.967687,3.99634 44.158029,11.98893 10.331828,7.84981 15.597497,19.12527 15.597497,33.82584 0,10.27612 -2.859553,18.98208 -8.379336,26.11829 -5.519748,7.13626 -12.627781,11.95776 -22.716442,15.24042 11.889351,17.86435 23.640394,36.41781 34.908463,55.17544 H 131.93748 V 434.41268 h 22.91281 V 576.7616 h 70.67423 c -8.57554,-6.06785 -15.38427,-13.99646 -20.37601,-23.83832 -5.95955,-11.89215 -8.9395,-26.11927 -8.9395,-42.68269 0,-12.17483 1.70275,-23.07577 5.1082,-32.70239 3.54738,-9.76823 8.58462,-18.04972 15.11176,-24.84499 6.66901,-6.93684 14.61521,-12.24592 23.83832,-15.92667 9.36503,-3.68078 19.86508,-5.52111 31.50042,-5.52111 17.3111,0 32.42283,4.25646 45.33522,12.32585 v 22.117 c -5.96006,-4.40987 -13.45777,-8.61984 -20.8039,-10.96264 -7.34613,-2.34278 -15.03902,-3.51399 -23.0782,-3.51399 -11.36568,0 -21.06811,2.34297 -29.10726,7.0285 -7.90054,4.68556 -13.99924,11.43833 -18.29605,20.25819 -4.15814,8.81992 -6.23734,19.43082 -6.23734,31.83372 0,12.40287 2.0792,23.08288 6.23734,32.04096 4.15822,8.8198 10.18776,15.57258 18.08832,20.25819 7.90054,4.68556 17.39503,7.028 28.48353,7.028 17.04856,0 33.14161,-5.41018 46.62919,-15.08075 v 21.91597 c -0.13909,0.0925 -0.28927,0.17557 -0.42942,0.26717 h 30.4741 c 8.86846,-23.26616 17.79217,-46.04112 26.76993,-68.32452 10.37741,-25.40455 20.89656,-50.09948 31.55829,-74.08486 h 22.97948 c 11.0513,25.4046 21.8929,50.80936 32.09417,76.21394 9.00528,22.11911 17.7958,44.18393 26.3715,66.19544 h 82.57172 V 370.32977 c -7.36269,-11.74295 -14.83667,-23.68036 -22.18986,-35.0692 -1.7235,0.25811 -4.45799,0.17947 -6.82596,0.22273 h -26.35496 v 60.24182 h -22.47358 v -151.8357 h 49.04042 c 11.11162,0 20.71084,1.32408 28.80394,3.96616 V 205.12384 Z M 367.28795,243.39177 h 99.39809 v 0.73122 h 0.0408 v 20.15951 h -76.46148 l -0.20672,42.37519 h 68.65421 v 20.18792 h -68.44749 v 48.64354 h 80.48913 v 0.31057 h 0.19637 v 0.54157 19.07582 0.73123 H 367.28795 Z m -161.25578,0.28577 c 15.05135,32.21443 33.33387,67.3318 50.79328,101.68268 19.00626,-35.6068 33.66164,-65.71773 50.32406,-101.68268 h 24.79075 l 0.1788,151.49359 v 0.50747 h -0.1788 -0.18656 v 0.003 h -0.17828 -21.37029 -0.0697 V 282.23599 c -6.73058,13.83842 -13.38083,27.17236 -20.34863,40.77477 -6.8888,13.30741 -15.25352,29.27924 -23.61459,44.49858 H 246.87107 C 238.63334,352.68484 230.7985,337.85955 223.12884,323.03505 217.028,311.12044 209.69848,296.13103 202.75233,282.6799 v 112.64014 0.50747 l -0.26149,-0.003 v 0.003 l -20.98995,-0.14573 h -0.0351 -0.0682 -0.11885 -0.0687 -0.10851 -0.0692 v -0.50745 l -0.008,-37.08508 v -0.50747 l -0.0259,-113.39359 v -0.50798 z m -130.018411,0.10025 h 22.901952 c 11.013999,25.36005 21.818869,50.72012 31.985659,76.08012 10.30793,25.35999 20.33355,50.64887 30.0767,75.86721 h -24.14683 c -2.55055,-6.93582 -5.1054,-13.84502 -8.05119,-21.75166 -2.22223,-6.29341 -4.51117,-12.58705 -6.85694,-18.88049 H 52.52217 c -4.51688,12.03135 -9.865561,26.77475 -14.838371,40.63215 H 14.172057 c 10.058998,-26.63511 20.189205,-52.63267 30.389874,-77.99266 10.342351,-25.36 20.826108,-50.01141 31.451828,-73.95467 z m 439.885811,18.89498 v 53.85046 h 25.16383 c 12.59456,0 22.00762,-1.76995 28.23858,-5.98569 0.75862,-0.51321 1.45836,-1.07897 2.10635,-1.68982 v -38.66843 c -6.34444,-5.16144 -16.62284,-7.50652 -30.14596,-7.50652 z m -428.734037,4.7289 c -4.546457,11.14364 -9.031856,22.28694 -13.452927,33.43053 -4.585369,11.55771 -9.103193,23.18377 -13.553694,34.87745 h 54.110918 c -4.60066,-11.82968 -9.20113,-23.52386 -13.80176,-35.08158 -4.434071,-11.13925 -8.868459,-22.21346 -13.302537,-33.2264 z M 3.2337056,453.1764 v 53.88766 H 28.933944 c 12.675581,0 22.1489,-2.21988 28.419972,-6.66007 6.27108,-4.44018 9.40666,-11.16782 9.40666,-20.18273 0,-18.03001 -12.542343,-27.04486 -37.626644,-27.04486 z m 415.3472444,4.84102 c -4.56187,11.16322 -9.06232,22.3261 -13.49841,33.48945 -4.60086,11.57806 -9.13413,23.22471 -13.59966,34.93895 h 54.29435 c -4.61621,-11.85048 -9.232,-23.56506 -13.84826,-35.14307 -4.44913,-11.15888 -8.89889,-22.25299 -13.34802,-33.28533 z m -382.2149,67.59641 c -2.264521,0.14269 -3.921792,0.21392 -6.469372,0.21392 H 3.2337056 V 576.7616 H 67.746562 c -3.975759,-6.85435 -7.98984,-13.65083 -12.088151,-20.31968 -6.08588,-10.27618 -12.64036,-20.55196 -19.292361,-30.82809 z m 347.70694,20.24941 c -3.47628,9.24449 -7.44181,20.08362 -11.35333,30.89836 h 91.82026 c -1.41488,-3.81876 -2.87589,-7.75187 -4.45555,-11.9848 -2.22975,-6.30449 -4.5265,-12.60904 -6.8802,-18.91356 z"/>
  <path d="M 0,0 V 163.54888 H 163.45477 V 0 Z m 113.9879,115.42046 c -3.02444,4.12552 -7.16838,7.29607 -11.94005,9.13531 -5.93834,2.28334 -12.26778,3.37604 -18.62763,3.21605 H 46.78985 V 35.77504 h 34.50458 c 10.16831,0 18.04434,2.03711 23.62876,6.11133 5.5805,4.06096 8.73174,10.66859 8.37661,17.56368 0.0983,4.00347 -0.94136,7.9526 -2.99975,11.38695 -2.1591,3.35522 -5.24191,6.01405 -8.87693,7.65604 4.94316,1.47173 9.29644,4.4662 12.44027,8.55704 2.94983,4.14178 4.46423,9.13535 4.31293,14.2189 0.13389,5.04153 -1.33255,9.99582 -4.18842,14.15148 z M 90.60837,70.45082 c 2.57891,-2.17967 3.98978,-5.44139 3.81255,-8.81454 0,-7.29025 -4.95956,-10.93538 -14.87853,-10.93538 h -14.1269 v 22.90266 h 14.1269 c 3.94288,0.26996 7.85645,-0.84512 11.06598,-3.15274 z M 81.91936,88.01449 H 65.4175 v 24.83352 h 16.25264 c 4.51262,0.28032 9.00388,-0.81942 12.8773,-3.1527 2.97023,-2.03826 4.67347,-5.47042 4.50075,-9.06998 0,-8.40723 -5.70968,-12.61084 -17.12883,-12.61084 z M 204.31862,0 V 163.54888 H 367.77327 V 0 Z M 318.3065,115.42046 c -3.0244,4.12552 -7.16837,7.29607 -11.9399,9.13531 -5.93858,2.28338 -12.26795,3.37613 -18.62772,3.21605 H 251.10837 V 35.77504 h 34.50488 c 10.1667,0 18.04273,2.03711 23.62858,6.11133 5.58033,4.06096 8.73171,10.66859 8.37652,17.56368 0.0985,4.00347 -0.94133,7.9526 -2.99971,11.38695 -2.1593,3.35522 -5.24201,6.01405 -8.87689,7.65604 4.94302,1.47177 9.29641,4.4662 12.44017,8.55704 2.94983,4.14178 4.46429,9.13535 4.31301,14.2189 0.13414,5.04153 -1.33251,9.99582 -4.18843,14.15148 z M 294.92694,70.45082 c 2.57886,-2.17967 3.98981,-5.44139 3.81248,-8.81454 0,-7.29025 -4.95941,-10.93538 -14.87855,-10.93538 H 269.7339 v 22.90266 h 14.12697 c 3.94315,0.26996 7.85668,-0.84512 11.06607,-3.15274 z m -8.68897,17.56367 H 269.736 v 24.83352 h 16.25278 c 4.51262,0.28032 9.00369,-0.81942 12.87731,-3.1527 2.97017,-2.03826 4.67332,-5.47042 4.50067,-9.06998 0,-8.40861 -5.70977,-12.61222 -17.12879,-12.61084 z m 122.39914,75.53439 H 572.09192 V 0 H 408.63711 Z m 117.39412,-41.60843 c -4.17182,2.24069 -8.623,3.91584 -13.23654,4.98133 -5.1866,1.23795 -10.50223,1.85188 -15.83436,1.82877 -6.75516,0.0988 -13.47567,-0.98981 -19.85497,-3.21605 -11.35437,-3.87971 -20.30009,-12.76006 -24.26763,-24.08979 -2.24589,-6.33391 -3.34469,-13.01778 -3.24503,-19.73769 -0.0963,-6.60715 1.0485,-13.17358 3.3756,-19.35763 2.13518,-5.58633 5.45631,-10.64249 9.73444,-14.81961 4.35854,-4.1942 9.55516,-7.41761 15.24806,-9.45812 6.39375,-2.26408 13.13854,-3.37442 19.92032,-3.27942 4.86754,-0.0267 9.72223,0.50382 14.47016,1.5774 4.39374,0.99711 8.64475,2.54374 12.6525,4.60339 V 58.882 c -3.55872,-2.35713 -7.45253,-4.16392 -11.5497,-5.35939 -4.25965,-1.2336 -8.67377,-1.84944 -13.10819,-1.8287 -5.59303,-0.16217 -11.1404,1.05023 -16.15678,3.53072 -4.37965,2.27737 -7.9578,5.84179 -10.25313,10.21415 -2.51451,5.04451 -3.74096,10.63373 -3.56954,16.26824 -0.16338,5.63963 1.015,11.23744 3.43888,16.33159 2.17921,4.38413 5.67244,7.97787 9.99168,10.27954 4.92322,2.48176 10.38726,3.69535 15.89748,3.53074 9.3079,0.0595 18.44197,-2.5204 26.34472,-7.44149 v 17.53305 z" id="path2"/>
</svg>