<?xml version="1.0" encoding="utf-8"?>
<!-- Generator: Adobe Illustrator 16.0.0, SVG Export Plug-In . SVG Version: 6.00 Build 0)  -->
<!DOCTYPE svg PUBLIC "-//W3C//DTD SVG 1.1//EN" "http://www.w3.org/Graphics/SVG/1.1/DTD/svg11.dtd">
<svg version="1.1" id="Layer_1" xmlns="http://www.w3.org/2000/svg" xmlns:xlink="http://www.w3.org/1999/xlink" x="0px" y="0px"
	 width="1000.002px" height="1000px" viewBox="-195.001 -195 1000.002 1000" enable-background="new -195.001 -195 1000.002 1000"
	 xml:space="preserve">
<path fill="#010101" d="M2.022,138.747h157.611v30.3H2.022V138.747z M2.022,2.193h157.611v30.301H2.022V2.193z M-195.001-195V805
	H805.001V-195H-195.001z M348.487-109.583h371.749V2.199H461.084v30.3h259.151v106.248H460.74v30.3h259.496v112.155H348.424
	L348.487-109.583z M136.98,720.653H24.686v-248.43H136.98V720.653z M271.886,441.918h-382.137V330.184h382.137V441.918
	L271.886,441.918z M295.732,175.622c-5.325,60.494-49.716,105.581-149.745,105.581h-256.238v-390.786h249.428
	c90.692,0,129.848,34.81,143.494,90.797c9.828,40.272-7.265,83.709-26.843,102.372C272.906,97.151,300.565,120.832,295.732,175.622z
	 M659.442,720.653l-125.517-94.83l-125.423,94.809l47.88-153.385L330.865,472.35l155.137,0.011l47.964-153.495l47.97,153.521
	l155.069,0.031L611.514,567.2L659.442,720.653z"/>
</svg>
