<?xml version="1.0" encoding="utf-8"?>
<!-- Generator: Adobe Illustrator 21.0.0, SVG Export Plug-In . SVG Version: 6.00 Build 0)  -->
<svg version="1.1"
	 id="svg2" xmlns:cc="http://creativecommons.org/ns#" xmlns:dc="http://purl.org/dc/elements/1.1/" xmlns:rdf="http://www.w3.org/1999/02/22-rdf-syntax-ns#" xmlns:svg="http://www.w3.org/2000/svg"
	 xmlns="http://www.w3.org/2000/svg" xmlns:xlink="http://www.w3.org/1999/xlink" x="0px" y="0px" width="1014.9px" height="442px"
	 viewBox="0 0 1014.9 442" enable-background="new 0 0 1014.9 442" xml:space="preserve">
<path fill="#003A7B" d="M1012.8,203.7c-7-36.2-41.8-53.5-57.5-57.6c-17.5-4.5-36.3-3.2-52.8,3.9c-8,3.4-18.7,9.5-25.3,15.4
	c-6.9-6.6-22.4-15.7-39.9-15.7c-15.4,0.7-78.3,8-94.5,16.6c-8.9-15.6-22.8-33.1-39.6-34.4c-7.9-0.6-15.6,2.6-20.3,9
	c-6.6,9-6.1,21.2-4,34.5c-24-24.1-78-25.6-112.3-25.9c-32.6-0.2-75.2,8.2-87.3,14.8c6.1-3.7,29.7-17.4,44.3-37.4
	c14.8,2.3,31.7-5.6,40.2-17.8c9.2-13.4,9.7-31.3,2.3-45.6c-6.1-11.8-17.2-20.7-29.9-24.3c-13.7-3.9-28.9-1.1-40,7.9
	c-1.6-15.2-12.5-28.1-26.5-33.7c-15-6-32.8-3.8-45.6,6.2c-6.9,5.4-12.2,12.9-14.6,21.3c-2.7,9.9-1.3,20.7,3.7,29.5
	c0,0-0.1,0.1-0.1,0.2C400.4,82.1,389,99.1,390.1,117c-30.4-30.2-66.1-54.1-99.4-71.3C257,28.3,192.5,1.6,126.1,0.1
	C106.5-0.4,63,1.4,43.2,7.4C1,20-3.1,50.7,1.4,64c5.1,14.9,22.6,20.8,45,16.9c8.3-1.5,16.9-8.4,18.9-19.2
	c32.6-1.9,70.2,0.8,106.2,10.5c-8.3,22.2-13.6,51.1-16.6,84.1c-18.2,3.9-40.1,10.2-56.9,18.4c-15,7.3-31.5,17.9-37.3,34.5
	c-6.3,17.7,4.1,35.1,15.1,48.4c11.6,14.1,39.9,40.5,78.5,59c1.6,9.5,5.9,29.4,26.2,35.9c14,4.5,31.8,1.3,42-13.4
	c12.8,2.9,36.5,4.5,50.9,4.6l0,20.1c0,24.9,20.2,45.3,45.1,45.3h508.8c6.4,13.3,19.4,29.2,34.3,32.1c26.8,5.3,29.9-19.6,31.4-27.4
	c1.5-8.2,2.7-16.4,5.3-24.4l19.6-65.6c17.1-2.6,36.5-10.7,50.3-20.8c13.6-9.9,25.3-22.4,33.9-36.8
	C1013.2,247.5,1018,225.3,1012.8,203.7"/>
<path fill="#FFFFFF" d="M457.3,87.4c-21.5,3.6-35,16.1-31.7,26.1C433.7,103.9,445.6,94.2,457.3,87.4 M441.1,126.4
	c4,1.2,8.8,2,14.4,2c13.6,0,45.2-12.6,45.2-28c0-2.6-1.5-9.2-9.8-9.2C478.1,91.2,452,114.2,441.1,126.4 M441.3,74.1
	c-6.8-2.7-12.6-7.8-15.2-14.6c-2.9-7.5-1.5-15.9,3.4-22.2c9-11.6,26.8-13.7,38.9-5.9c6.5,4.2,11.1,11.2,11.4,19
	c0.3,6.3-2.2,12.4-6.5,16.9c11.1,0.6,18.7,6.3,24,11.3c0.1,0,0.3,0,0.4,0c0.2-3.7,1.1-7.5,2.9-10.7c4.2-7.2,11.5-12,19.7-12.9
	c8.2-1,17.8,1.9,25.9,10.2c4.6,4.7,7.3,11.3,7.7,18c0.5,7.8-2.5,15.7-8.4,20.9c-6.1,5.4-14.6,7.3-22.5,5.9c-3.4-0.3-6.6-1.4-9.5-3
	c-9,20.1-40,40.4-60.8,40c-35.5-0.6-44.3-21.1-44.3-32.8C408.6,102.5,420.9,84,441.3,74.1"/>
<path fill="#FFFFFF" d="M322.7,393.1c-9,0-21.7-4.6-25-14.5c-2.7-8.1,1.2-16.6,11.7-25.3c23.5-19.7,37.3-23.1,46.7-23.8
	c11.4-0.9,16,6.3,16.9,10.3c0.8,3.7-1.6,7.3-5.2,8.1c-3.4,0.7-6.8-1.3-7.9-4.5c-0.3-0.2-1.1-0.4-2.7-0.3
	c-7.4,0.6-18.5,3.5-39.1,20.7c-6.8,5.6-7.8,9.3-7.4,10.5c0.8,2.3,6.3,4.9,10.9,5.2c9.9,0.5,48.9-1.7,56.9-4.4
	c3.6-1.2,7.4,0.7,8.6,4.2c1.2,3.6-0.7,7.4-4.3,8.6C372.8,391.2,336.3,393.1,322.7,393.1"/>
<path fill="#FFFFFF" d="M445.9,362.5l1.3,29c0.2,3.8-2.7,6.9-6.5,7.1c-0.1,0-0.2,0-0.3,0c-3.6,0-6.6-2.8-6.8-6.5l-1.2-25.9
	c-5.9,1.7-12.9,3.7-19.8,5.8v16.7c0,3.7-3,6.8-6.8,6.8c-3.8,0-6.8-3.1-6.8-6.8v-12.6c-0.7,0.2-1.3,0.4-1.9,0.6
	c-0.7,0.2-1.3,0.3-1.9,0.3c-2.9,0-5.6-1.9-6.5-4.8c-1.1-3.6,0.9-7.4,4.5-8.5c1.2-0.4,3.3-1,5.9-1.8v-25c0-3.8,3-6.8,6.8-6.8
	c3.8,0,6.8,3,6.8,6.8v21c6.4-1.9,13.3-3.9,19.2-5.6l-1-21.4c-0.2-3.7,2.7-6.9,6.5-7.1c3.7-0.1,6.9,2.7,7.1,6.5l0.8,18.5
	c0.4-0.1,0.8-0.2,1.1-0.2c3.7-0.6,7.5,2,7.8,5.7C454.4,358.6,452,361.6,445.9,362.5"/>
<path fill="#FFFFFF" d="M543.1,402.1c-3.9,0.4-6.6-1.6-7.5-4.5c-0.2-0.5-0.7-2.1-0.8-29.6c-0.1-30,0.5-32,5.4-34
	c5.4-2.3,8.8,2,13.9,8.6c3.3,4.1,7.4,9.7,11.8,15.6c4,5.4,9.2,12.3,13.3,17.5c0.2-11.3,1.8-44.9,2.2-48.1c0.5-3.7,3.8-6.3,7.6-5.9
	c3.7,0.5,6.4,3.9,5.9,7.6c-0.3,2.3-1.9,29.2-2,40.6c-0.1,11.7-0.2,21.3-5.7,24.6c-2.6,1.6-5.7,1.7-8.6,0.2
	c-3.2-1.6-7.2-6.4-23.6-28.4c-2-2.7-4.3-5.8-6.5-8.7c-0.1,14.3,0.2,33.7,0.4,37.1C549.1,397.8,547,401.7,543.1,402.1"/>
<path fill="#FFFFFF" d="M662.5,393.8c-6.6,3-13.3-3-24.6-13.8l-1-1c-2.9-2.8-7.5-7.6-12.3-12.7c-1.7-1.8-3.8-4-5.8-6.1
	c0.4,8.7,1.2,20.2,2,30.9c0.3,3.7-2.5,7-6.3,7.3c-0.2,0-0.3,0-0.5,0c-3.5,0-6.5-2.7-6.8-6.3c0,0-0.9-11.7-1.6-23.4
	c-1.4-24.3-1.7-28.7,4.5-30.6c5.1-1.5,6.9,0.4,24.3,18.9c4.5,4.7,9.1,9.6,11.8,12.2l1,1c1.5,1.4,3.6,3.4,5.8,5.4
	c-1.1-12-3.1-31-4.3-42.1c-0.4-3.7,2.3-7.1,6-7.5c3.7-0.4,7.1,2.3,7.5,6.1c0.2,1.8,4.8,44.5,5.1,52.7
	C667.7,390.8,664,393.1,662.5,393.8"/>
<path fill="#FFFFFF" d="M733.4,388.9c-6.8,4.6-21.5,3.2-36.1,4.6c-7,0.7-12.4-0.6-14.6-3.2c-1.9-2.3-3.6-11.4-4.8-21.2
	c-0.1-0.5-0.2-1.1-0.2-1.7c0-0.1,0-0.2,0-0.3c-1.4-12.3-2.2-24.9-2.2-25.1c0-3.2,1.5-5.3,2.7-6.5c3.4-3.3,8.2-3.4,16.4-3.2
	c8.3,0.2,27.7-1,30.2-1.2c3.2-0.6,6.4,1.3,7.5,4.4c1.2,3.6-0.6,7.4-4.2,8.7c-2.6,0.9-28.4,1.8-33.8,1.8c-1,0-3-0.1-4.9,0
	c0.3,3.5,0.4,5.1,1,10.7c11.1-0.4,25-1.4,31.3-2.5c3-0.5,6.5,2.5,6.6,6.3c0.1,2.9-1.9,5.9-5.6,6.6c-9.4,1.8-20.7,2.4-30.6,2.8
	c0.3,2.6,1.1,9.1,1.4,10.7c6.1,0.6,17.5-0.8,33.5-3.9c3.7-0.7,6.8-0.8,8.7,2.4C737.3,382.2,736.5,386.8,733.4,388.9"/>
<path fill="#FFFFFF" d="M753.5,327.4c3.7,0,6.8,2.9,6.8,6.7c0,1.8,0.8,42.4,0.9,49.4c0.2,0,0.5-0.1,0.7-0.1
	c8.3-1.4,28.8-4.5,49.1-2.4c3.7,0.4,6.5,3.7,6.1,7.5c-0.4,3.7-3.7,6.5-7.5,6.1c-18.8-1.9-37.8,1-45.4,2.3
	c-8.6,1.5-16.6-2.2-16.6-12.5c0-2.5-0.6-33.7-0.9-49.9C746.7,330.6,749.8,327.4,753.5,327.4"/>
<path fill="#FFFFFF" d="M467.6,399.9c-4.2-0.5-6.7-4.6-5.8-8.3c0.8-3.6,1.7-6.9,2.4-10.1c-2.6-0.2-4.9-1.7-5.9-4.3
	c-1.4-3.5,0.3-7.4,3.9-8.8c0.3-0.1,2.5-1,5.9-2.3c11.1-42.1,15.1-42.3,19.7-42.4c3.6-0.1,7.1-0.2,22.8,28.2c2.9,0.2,5.4,2.2,6.2,5.1
	c0.5,1.8,0.2,3.6-0.7,5.1c3.6,6.9,7.8,15.1,12.6,24.7c1.7,3.4,0.3,7.5-3.1,9.1c-3.4,1.7-7.4,0.3-9.1-3c-4.1-8.3-8.7-17-13-25.1
	c-7.5,2.4-16.6,5.8-23.8,8.5c-1.6,6.1-3.2,12.4-4.6,18.3C474.3,397.9,471.2,400.4,467.6,399.9 M483.9,360.3
	c4.3-1.6,8.8-3.2,12.9-4.5c-2.9-5.1-5.4-9.6-7.5-13C487.7,347.3,485.9,353.4,483.9,360.3"/>
<g>
	<linearGradient id="SVGID_1_" gradientUnits="userSpaceOnUse" x1="685.5056" y1="152.8965" x2="685.5056" y2="298.9873">
		<stop  offset="0.3114" style="stop-color:#FFFFFF"/>
		<stop  offset="0.5086" style="stop-color:#91FFEB"/>
		<stop  offset="0.7163" style="stop-color:#19FED6"/>
	</linearGradient>
	<path fill="url(#SVGID_1_)" d="M640.8,299c-10.7,0-14.8-8-14.9-28.6c-0.1-16,7.1-73.9,19.9-86.8c1.5-1.5,3-2.3,4.4-2.3
		c0.1,0,0.2,0,0.3,0c9.8,0.7,30.2,31,43.8,51c12.5,18.5,15.7,22.8,18.3,22.8c0,0,0,0,0,0c0.2,0,0.4,0,0.6-0.1
		c3.1-0.9,4.6-5.1,4.6-13.3c0-10.3-5.6-28.8-10.9-46.7c-4.4-14.7-8.6-28.6-8.6-34.8c0-7.3,2.2-7.3,3.2-7.3
		c14.6,0,43.3,50.6,43.5,93.7c0,18.7-11.5,45.8-29.6,45.9c-10.7,0-28.5-27.9-40.3-46.3c-10.1-15.9-13.7-21-16.5-21
		c-4.6,0-5.1,8.1-5.7,26.4C652.4,270.4,651.5,299,640.8,299L640.8,299z"/>
	<path fill="#FFFFFF" d="M701.6,151.1v3.5c5.2,0,15.5,9.3,25.6,29.7c10,20.1,16,43.4,16.1,62.3c0,9.4-3,20.5-7.8,29.1
		c-7.3,13-15.7,15-20.1,15c-2.2,0-7.5-1.9-17.7-14.8c-7.3-9.2-14.6-20.6-21.1-30.7c-11.5-18-14.3-21.8-18-21.8
		c-6.5,0-6.8,9.4-7.4,28.1c-0.3,10.7-0.7,22.7-2.5,32.1c-1.2,6.2-3.5,13.7-7.9,13.7l-0.1,0c-7.9,0-13.1-4.6-13.1-26.9
		c-0.1-16.9,7.4-73.5,19.4-85.5c1.2-1.2,2.2-1.7,3.2-1.7h0c0.1,0,0.1,0,0.2,0c1.6,0.1,6.7,2,18.6,16.8c8,10.1,16.4,22.5,23.9,33.4
		c13.5,20,16.2,23.6,19.7,23.6c0.4,0,0.7-0.1,1.1-0.1c5.2-1.4,5.9-8.8,5.9-15c0-10.6-5.6-29.2-11-47.2c-4.2-13.9-8.5-28.4-8.5-34.3
		c0-2.3,0.2-3.9,0.6-4.9c0.3-0.7,0.4-0.7,0.8-0.7L701.6,151.1 M701.6,151.1C701.5,151.1,701.5,151.1,701.6,151.1c-4.2,0-5,4.4-5,9.1
		c0.1,14,19.5,62.8,19.5,81.6c0,3.9-0.3,10.8-3.3,11.7c0,0-0.1,0-0.1,0c-5.3,0-45.2-72.6-62-73.9h0c-0.1,0-0.3,0-0.4,0
		c-17.1,0-26.2,72.8-26.1,90.8c0,18.2,3.2,30.4,16.6,30.4c0,0,0,0,0.1,0c20.1,0,9.7-73.9,17.8-73.9c5.9,0,38.6,67.4,56.8,67.4
		c0,0,0,0,0.1,0c19.7,0,31.3-28.9,31.3-47.6C746.6,203.7,718.1,151.1,701.6,151.1L701.6,151.1z"/>
</g>
<g>
	<linearGradient id="SVGID_2_" gradientUnits="userSpaceOnUse" x1="548.6479" y1="170.6729" x2="548.6479" y2="300.7715">
		<stop  offset="0.1122" style="stop-color:#FFFFFF"/>
		<stop  offset="0.2688" style="stop-color:#B0FFF1"/>
		<stop  offset="0.5544" style="stop-color:#19FED6"/>
	</linearGradient>
	<path fill="url(#SVGID_2_)" d="M555.4,300.8c-27.3,0-43.6-7.7-52.4-14.1c-7.3-5.3-14.7-14-14.7-21.3c-0.1-24.2,27.5-25.6,33-25.7
		c7.1,0,21.3,1.4,33.5,4c20.7,4.4,22.3,9.1,22.3,10.4c0,1.4-1,2.7-1.8,3.5c-3.2,3.2-10.9,6.5-20.7,6.6h-0.1
		c-6.9,0-15.8-3.5-23.7-6.6c-7.2-2.8-13.5-5.3-18-5.3c-9.9,0-15.2,6.8-15.2,11.7c0,1.6,0,5.3,4.1,8.2c4.2,3,11.6,4.4,22.8,4.4l0.4,0
		c8.6-0.1,72.7-5.6,72.6-24.6c0-4.3-5.7-8.2-17.5-11.9c-9.4-2.9-21.8-5.4-33.3-6.6c-6-0.6-12.7-0.8-19.3-0.9
		c-23.3-0.5-47.4-1.1-47.5-21c-0.1-16.4,12.4-28.1,37.1-34.9c19.2-5.3,40.6-5.9,48.9-6c1.7,0,3.4,0,5.2,0c12.7,0,46.6,0,46.7,11.4
		c0,10.4-33.1,12.5-59.7,14.2c-31.2,2-50.3,3.6-50.4,12.4c-0.1,5.4,11.2,6.8,39.1,9c2.8,0.2,5.7,0.4,8.6,0.7
		c15.6,1.3,30.6,3,42.3,8.6c13.3,6.3,19.7,16.8,19.8,32.2c0,3.4-0.8,15.3-12.1,26c-10.8,10.3-27.8,15.7-49.3,15.8L555.4,300.8z"/>
	<path fill="#FFFFFF" d="M570.9,172.4c9.5,0,21.6,0.2,30.9,1.9c5.2,0.9,14,3.2,14,7.7c0,1.9-2.2,5.5-16.8,8.3
		c-11.4,2.2-26.6,3.2-41.3,4.1c-33.2,2.1-51.9,3.8-52,14.1c-0.1,7,10.5,8.4,40.7,10.8c2.8,0.2,5.7,0.4,8.5,0.7
		c33.1,2.8,60.4,7.7,60.5,39c0,3.2-0.8,14.5-11.5,24.7c-10.5,10-27.1,15.3-48.1,15.3l-0.5,0c-49.2,0-65.4-25.1-65.4-33.7
		c-0.1-22.6,26-23.9,31.3-23.9c6,0,20.3,1.2,33.2,3.9c17.1,3.6,20.9,7.6,21,8.7c0,0.6-0.5,1.5-1.3,2.3c-4.1,4.1-13,6-19.5,6l-0.1,0
		c-6.5,0-15.3-3.4-23-6.4c-7.4-2.9-13.8-5.4-18.7-5.4c-7.1,0-17,4.7-17,13.4c0,9.9,8.8,14.4,28.6,14.4l0.4,0c6,0,24.1-1.7,40.7-5.4
		c22.6-5.1,33.6-12,33.6-20.9c0-5.2-6-9.6-18.7-13.6c-9.5-3-22-5.5-33.6-6.7c-6-0.6-12.8-0.8-19.4-0.9c-11.7-0.3-23.8-0.5-32.6-3.3
		c-9.1-2.9-13.2-7.8-13.2-16c0-15.5,12-26.7,35.8-33.2c19-5.2,40.2-5.9,48.4-5.9l0.1,0C567.4,172.4,569.1,172.4,570.9,172.4
		 M570.9,168.9c-1.8,0-3.5,0-5.2,0l0,0c-14.5,0-87.8,1.8-87.7,42.6c0.1,27.7,41.1,20.9,68.3,23.7c22.2,2.3,49.2,9.5,49.2,16.8
		c0,16.3-58.8,22.8-70.9,22.9c-0.1,0-0.3,0-0.4,0c-24.6,0-25.1-7.2-25.1-10.9c0-3.6,4.1-9.9,13.5-9.9c9.3,0,28.5,11.8,41.7,11.8
		c0,0,0.1,0,0.1,0c13.3,0,24.3-5.9,24.3-11.9c0-10.9-44-16.1-57.6-16.1c-14.3,0.1-34.8,5.9-34.8,27.4c0,11.1,18.2,37.2,68.9,37.2
		c0.2,0,0.3,0,0.5,0c50.4-0.1,63.1-28.7,63.1-43.5c-0.1-35.9-34.1-39.9-63.7-42.5c-22.2-1.8-46.1-2.9-46-7.9
		c0.2-16.4,110.2-4.3,110.1-26.6C619.2,169.8,590.6,168.9,570.9,168.9L570.9,168.9z"/>
</g>
<g>
	<linearGradient id="SVGID_3_" gradientUnits="userSpaceOnUse" x1="215.1319" y1="15.3934" x2="231.7423" y2="332.3383">
		<stop  offset="0.3273" style="stop-color:#FFFFFF"/>
		<stop  offset="0.3578" style="stop-color:#FAFFFE"/>
		<stop  offset="0.3965" style="stop-color:#EAFFFB"/>
		<stop  offset="0.4395" style="stop-color:#D0FFF7"/>
		<stop  offset="0.4858" style="stop-color:#ACFFF0"/>
		<stop  offset="0.5347" style="stop-color:#7DFEE8"/>
		<stop  offset="0.5848" style="stop-color:#45FEDE"/>
		<stop  offset="0.6203" style="stop-color:#19FED6"/>
	</linearGradient>
	<path fill="url(#SVGID_3_)" d="M193.1,334.3c-14.7,0-18.2-10.9-19.2-29.8l-1.1-1.5c-56.2-24.4-93.4-65.4-93.4-81.9
		c0-8.8,9.8-18.6,27.7-27.4c17.7-8.7,41.1-15.5,66-19.3l1.5-1.7c2-48.1,8.7-65.2,14.3-65.2c9.3,0,15.6,23.2,16.9,62.2l1.7,1.7
		c42.2,0,74.2,5.2,95,15.5c15.9,7.9,24.7,18.8,24.7,30.7c0,7.9-4.7,14.2-8.6,18.1c-4.4,4.4-9.1,6.9-10.2,7.2
		c-1.9-0.1-3.8-0.2-5.6-0.2c-5.4-0.2-12.8-0.4-12.8-2.6c0-2.4,2.5-4.8,5.2-7.4c3.2-3,6.5-6.2,6.5-10.3
		c-0.1-10.8-49.9-21.3-78.8-21.3l-0.5,0c-4.3,0-9.1,0-14.3,0.1l-1.7,1.8c0.5,27.1,1.7,69,2.4,88.9l1.4,1.7c15.7,3,31.3,4.6,46.3,4.6
		l0.6,0c14.1,0,50.1-1.6,81.3-15.2c31.7-13.8,47.7-35.3,47.6-63.9c-0.1-38.8-36.6-83.6-97.5-120.1C227.6,62.7,152.6,41,87.7,41
		l-0.8,0c-5.2,0-18.6,0.2-30.4,1.5c-13.8,1.5-19.7,3.8-19.7,7.7c0,3.7,3,5.1,5.1,6.2c2.3,1.1,3.2,1.7,3.2,3.1c0,0.4-0.1,0.6-0.3,0.8
		c-1.6,1.6-7.8,1.6-9.9,1.6l-0.5,0c-6.4,0-10.5-1-12.6-3.2c-1.1-1.2-1.7-2.6-1.6-4.5c0-8.2,8.9-19.1,19.4-23.7
		c11.9-5,38.2-8.5,70.5-9.4c2.4-0.1,4.9-0.1,7.3-0.1c34.3,0,70.7,6.5,108.2,19.5C260,52.2,293.9,69.1,324,89.4
		c60.7,40.9,98.4,90.1,98.5,128.6c0.1,29.1-15.4,55.9-43.6,75.5c-28,19.4-66,30.2-107.1,30.3h-0.5c-20.4,0-40.6-2.5-60.1-7.5
		l-2.2,1.5c-1.5,11.2-6.6,16.6-15.7,16.6L193.1,334.3z M172.1,202.5c-58.2,2.9-86.4,10.7-86.4,23.8c0,10.7,35.9,39.3,85.4,56.8
		l2.3-1.7c0-22.8,0.2-56,0.5-77.2L172.1,202.5z"/>
	<path fill="#FFFFFF" d="M117.6,22.7c143.2,0,303,116.4,303.2,195.2c0.1,28.5-15.1,54.8-42.9,74.1c-27.7,19.2-65.4,29.9-106.1,30
		l-0.5,0c-20.3,0-40.3-2.5-59.7-7.4l-4.3,2.9c-1.8,13.6-8.8,15.1-14,15.1l-0.2,0c-11.9,0-16.3-7.1-17.5-28.1l-2.1-3
		c-25.7-11.2-49.9-26.9-68.1-44.4c-16.8-16.1-24.3-29.6-24.3-35.9c0-8,9.7-17.4,26.7-25.8c17.5-8.6,40.8-15.4,65.5-19.1l3-3.3
		c0.5-11.6,1.6-28.3,4-41.9c3.8-21.4,8.4-21.6,8.7-21.6c6,0,13.6,15.8,15.2,60.5l3.5,3.4c41.9,0,73.6,5.2,94.2,15.4
		c15.3,7.6,23.7,17.9,23.7,29.1c0,13.6-14.7,22.4-17.3,23.5c-1.8-0.1-3.6-0.2-5.3-0.2c-3.6-0.1-9.3-0.3-11.1-1.2
		c0.3-1.6,2.6-3.8,4.6-5.7c3.3-3.1,7-6.7,7-11.6c0-2.1-0.1-8.6-28.6-16.1c-16.8-4.4-36.2-7-51.9-7l-0.5,0c-4.3,0-9.1,0-14.3,0.1
		l-3.4,3.6c0.5,27.1,1.7,69,2.4,88.9l2.8,3.3c15.8,3,31.5,4.6,46.6,4.6l0.6,0c14.2,0,50.5-1.6,82-15.4c14.7-6.4,26.3-14.7,34.4-24.6
		c9.5-11.5,14.3-25.3,14.2-40.9c-0.1-20.4-9.4-42-27.9-64c-17-20.3-41.4-40.2-70.5-57.6c-29.1-17.4-62.4-31.9-96.2-42
		c-36.3-10.8-71.8-16.3-105.5-16.3l-0.8,0c-5.2,0-18.7,0.2-30.6,1.5c-15.3,1.7-21.2,4.3-21.2,9.4c0,4.8,3.8,6.7,6.1,7.8
		c0.7,0.3,1.9,0.9,2.1,1.3c-0.7,0.3-2.6,0.9-8.4,0.9l-0.4,0c-5.8,0-9.6-0.9-11.3-2.7c-0.5-0.5-1.2-1.4-1.1-3.3l0-0.1
		c0-7.4,8.6-17.7,18.4-22c11.7-4.9,37.8-8.4,69.8-9.3C112.7,22.7,115.2,22.7,117.6,22.7 M170.5,284.7l4.7-3.3
		c0-22.8,0.2-55.9,0.5-77.1l-3.7-3.5c-79,3.9-88.1,16.5-88.1,25.5c0,8.9,17.4,22,24.8,27.3C126,265.6,147.9,276.7,170.5,284.7
		 M117.6,19.2c-2.5,0-4.9,0-7.4,0.1c-31.8,0.9-58.6,4.3-71.1,9.6c-10.7,4.7-20.5,16-20.5,25.3c-0.2,8.6,9.6,9.5,15.9,9.5
		c0.2,0,0.3,0,0.5,0c6.3,0,12-0.5,11.9-4.2c0-5.2-8.3-4.1-8.3-9.3c0-6,32.2-7.4,48.3-7.5c0.3,0,0.5,0,0.8,0
		c137.9,0,296.3,95.4,296.6,176.4c0.2,63-81.9,77.2-127.1,77.3c-0.2,0-0.4,0-0.6,0c-15.9,0-31.3-1.7-46-4.5
		c-0.7-20.1-1.9-62.2-2.4-88.8c5.2-0.1,10.1-0.1,14.3-0.1c0.2,0,0.3,0,0.5,0c33.5,0,76.9,11.8,77,19.6c0,6.7-11.7,11.3-11.7,17.7
		c0,4.8,10.8,3.9,20.2,4.6c0,0,0,0,0,0c1.9,0,20.5-10.5,20.5-27c-0.1-22.1-27.9-48-121.4-48l0,0c-0.9-24.8-4.6-63.9-18.7-63.9
		c0,0,0,0,0,0c-11.7,0-15.1,43.1-16.1,66.9c-50.4,7.6-95.3,28.1-95.3,48.4c0,16.5,36.1,58.2,94.5,83.5c1,18.6,4.5,31.4,21,31.4
		c0.1,0,0.2,0,0.2,0c12,0,16.2-8.8,17.4-18.2c18.7,4.8,39.1,7.5,60.6,7.5c0.2,0,0.3,0,0.5,0c84.7-0.2,152.7-45.5,152.5-107.5
		C424,136.2,261.8,19.2,117.6,19.2L117.6,19.2z M171.7,281.4c-50.1-17.7-84.2-45.8-84.2-55.2c0-14.5,44-20,84.7-22
		C171.9,226.9,171.7,259.5,171.7,281.4L171.7,281.4z"/>
</g>
<g>
	<linearGradient id="SVGID_4_" gradientUnits="userSpaceOnUse" x1="453.534" y1="170.1899" x2="453.534" y2="299.1943">
		<stop  offset="0.1434" style="stop-color:#FFFFFF"/>
		<stop  offset="0.1874" style="stop-color:#F7FFFE"/>
		<stop  offset="0.254" style="stop-color:#E3FFFA"/>
		<stop  offset="0.3348" style="stop-color:#C0FFF4"/>
		<stop  offset="0.4269" style="stop-color:#91FFEB"/>
		<stop  offset="0.527" style="stop-color:#55FEE1"/>
		<stop  offset="0.6168" style="stop-color:#19FED6"/>
	</linearGradient>
	<path fill="url(#SVGID_4_)" d="M455.5,299.2c-4.8,0-7.6-0.9-9.8-3.2c-5.5-5.6-7.7-20.6-7-48.7l0.1-3.5c0.2-11.3,0.6-30.3,2.6-46.1
		c3-23.8,8-27.4,10.7-27.4c3.9,0,7.9,1.9,10.9,15.5c2.9,13.2,4.6,36,5.5,73.7c0.6,23.6-0.5,34.2-4,37.7c-1.8,1.9-4.6,2.1-8.6,2.1
		L455.5,299.2z"/>
	<path fill="#FFFFFF" d="M452,171.9c2.1,0,6.1,0,9.2,14.1c2.9,13.1,4.6,35.8,5.5,73.4c0.6,22.4-0.5,33.4-3.5,36.5
		c-1.3,1.3-3.3,1.5-7.4,1.5l-0.2,0c-4.2,0-6.7-0.8-8.6-2.7c-5.1-5.2-7.1-20.3-6.5-47.5c0-1.1,0-2.2,0.1-3.5
		c0.2-11.3,0.6-30.2,2.6-46C446.2,172.8,451.4,171.9,452,171.9 M452,168.4c-14.3,0.1-14.7,57.7-15.1,78.8c-1,47.7,6,53.7,18.6,53.7
		c0.1,0,0.2,0,0.3,0c11.4,0,15.4-1.4,14.4-41.6C468.4,183.1,463.2,168.4,452,168.4L452,168.4z"/>
</g>
<g>
	<linearGradient id="SVGID_5_" gradientUnits="userSpaceOnUse" x1="809.7964" y1="170.7979" x2="809.7964" y2="308.749">
		<stop  offset="9.929888e-02" style="stop-color:#FFFFFF"/>
		<stop  offset="0.141" style="stop-color:#EFFFFC"/>
		<stop  offset="0.2228" style="stop-color:#C5FFF5"/>
		<stop  offset="0.3365" style="stop-color:#81FEE9"/>
		<stop  offset="0.4766" style="stop-color:#24FED8"/>
		<stop  offset="0.4928" style="stop-color:#19FED6"/>
	</linearGradient>
	<path fill="url(#SVGID_5_)" d="M781.1,308.7c-21.7,0-28.5-24.7-28.6-33.7c0-4.7,3.3-14.6,6-22.6c1.3-3.9,2.5-7.6,3.3-10.3
		c0.6-2.3-0.6-4.5-1.7-6.4c-0.5-0.9-1.2-2.2-1.2-2.7c0.5-5.4,6.1-7.9,10.5-9.9c3.1-1.4,5.5-2.5,6.2-4.5c0.7-2,4.6-14,3.9-17.8
		c-0.4-1.8-2.6-2.9-6.7-4.7c-5.7-2.6-14.4-6.5-14.4-12.3c0-6.8,28.1-8.9,50.7-10.6c8.5-0.6,17.2-1.3,25.4-2.2c1-0.1,2.1-0.2,3.1-0.2
		c10.9,0,21.2,6.7,26.6,13.4c2.6,3.2,2.9,5,2.8,5.3c-1,3.6-4.1,6.1-9.1,7.4c-0.9,0.2-7.4,0.6-13.6,0.9c-18.5,1-34.2,2-38.3,3.7
		c-1.4,0.6-2.5,2.2-3.5,4.9c-1.4,4.1-2.5,11.6-1,14.2c1.4,2.2,7.5,3,28.4,3.6c3.2,0.1,5.7,0.2,6.7,0.3c3.6,0.3,5.8,4.7,5.7,8.7
		c0,1.9-0.7,8.1-8.4,8.6c-1.4,0.1-5.2,0.1-9.6,0.1c-14.5,0.1-27.9,0.2-31.3,1.3c-4.5,1.5-7.3,12.6-8,16c-1.1,5.1-2,11.6,0.1,13.6
		c0.7,0.6,1.7,0.9,3.5,0.9c5.1,0,16.5-2,27.5-3.9c8.4-1.5,16.4-2.9,19-2.9c3.6,0,8.5,2.5,11.6,6c2,2.3,3,4.6,2.8,6.5
		c-1,3.5-31.5,28.1-67.6,29.3C781.7,308.7,781.4,308.7,781.1,308.7C781.1,308.7,781.1,308.7,781.1,308.7z"/>
	<path fill="#FFFFFF" d="M837.7,169v3.5c8.9,0,16.1,4.6,19.6,7.3c5.2,4.1,7.7,8.1,8,9.4c-0.9,2.8-3.5,4.8-7.7,5.9
		c-1.1,0.2-7.3,0.6-13.3,0.9c-19.4,1.1-34.5,2-38.9,3.8c-1.9,0.8-3.3,2.7-4.5,6c-1.3,3.7-2.8,12.2-0.8,15.7l0.1,0.1
		c1.7,2.7,5.8,3.6,29.8,4.4c3,0.1,5.6,0.2,6.7,0.3c2.2,0.2,4.1,3.4,4.1,6.9c0,2.4-0.9,6.5-6.7,6.9c-1.4,0.1-5.2,0.1-9.5,0.1
		c-15.8,0.1-28.2,0.2-31.9,1.4c-2.7,0.9-6.4,4.6-9.2,17.3c-0.7,3.3-2.7,12.2,0.6,15.2l0,0c1.3,1.1,3,1.3,4.7,1.3
		c5.3,0,16.7-2,27.8-3.9c8-1.4,16.3-2.8,18.7-2.8c3.1,0,7.5,2.3,10.3,5.5c1.5,1.7,2.4,3.4,2.4,4.8c-2.9,4.7-32.6,27-66,28.1
		c-0.3,0-0.6,0-0.9,0c-20.4,0-26.8-23.4-26.8-32c0-4.4,3.3-14.2,5.9-22c1.3-3.9,2.5-7.6,3.3-10.5c0.8-2.9-0.7-5.6-1.8-7.7
		c-0.3-0.6-0.8-1.5-0.9-1.9c0.5-4,4.4-6,9.5-8.3c3.3-1.5,6.2-2.8,7.2-5.6l0,0c0.4-1,4.8-14.1,4-18.7c-0.5-2.7-3.2-3.9-7.7-6
		c-5-2.3-13.3-6-13.3-10.7c0,0,0.3-2.7,13.2-5.1c9.5-1.7,22.4-2.7,35.9-3.7c8.5-0.6,17.3-1.3,25.4-2.2c0.9-0.1,1.9-0.2,2.9-0.2V169
		 M837.7,169c-1.1,0-2.2,0.1-3.3,0.2c-33.8,3.6-77.7,3.5-77.6,14.5c0,10.4,20.5,14.5,21.1,17.3c0.5,2.9-2.7,13.6-3.9,16.9
		c-1.2,3.6-15.8,4.7-16.8,14.8c-0.2,2.4,3.6,6,2.9,8.8c-2.3,8.5-9.3,26-9.3,33.3c0,11.1,8.1,35.5,30.3,35.5c0.3,0,0.7,0,1,0
		c36.3-1.2,68.8-26.4,69.3-30.9c0.7-6.7-9.2-14.5-16.2-14.5c-6.1,0-37.4,6.8-46.5,6.8c-1.2,0-2-0.1-2.3-0.4
		c-2.5-2.3,2.3-25,7.3-26.6c4.9-1.6,35.5-1.1,40.6-1.4c14.3-0.8,11.6-20.1,2.7-20.8c-4.4-0.4-32.2-0.5-33.8-3
		c-1.5-2.5,0.5-15.4,3.6-16.7c6.3-2.6,48.5-3.8,51.7-4.6c5.2-1.3,9.1-4.1,10.4-8.6C870,185.7,855.8,169,837.7,169L837.7,169z"/>
</g>
<g>
	<linearGradient id="SVGID_6_" gradientUnits="userSpaceOnUse" x1="919.4241" y1="167.2275" x2="919.4241" y2="422.0352">
		<stop  offset="0.1431" style="stop-color:#FFFFFF"/>
		<stop  offset="0.1838" style="stop-color:#E9FFFB"/>
		<stop  offset="0.2687" style="stop-color:#B0FFF1"/>
		<stop  offset="0.3895" style="stop-color:#56FEE1"/>
		<stop  offset="0.466" style="stop-color:#19FED6"/>
	</linearGradient>
	<path fill="url(#SVGID_6_)" d="M868.5,422c-4.6,0-10.6-3.6-15.6-9.3c-5.5-6.3-8.7-13.9-8.8-20.9c-0.5-29.5,14-75.7,22.7-103.3
		c1-3.2,1.9-6.1,2.7-8.8l-0.1-1.3c-4.3-8.5-6.8-18.5-6.8-27.3c-0.1-35.7,32.4-74.2,43.7-83.4c0.4-0.3,0.8-0.5,1.2-0.5
		c0.6,0,1.3,0.6,1.9,1.5c1.9,3.1,2.5,9.2,0.2,14.2c-1.1,2.3-3.5,6.6-6.3,11.5c-8.7,15.5-20.6,36.7-20.6,45.9c0,2.7,0.8,5.7,2.4,9
		l3,0.3c13.2-16.9,28.1-33.6,40.7-45.7c16.5-15.9,29.7-24.6,38-25.1c0.1,0,0.2,0,0.4,0c5.8,0,27.4,7.6,27.5,45
		c0,16.6-9.4,36-25.3,51.9c-17.9,18-40.3,28.3-61.2,28.3c0,0,0,0,0,0c-1.5,0-2.9-0.1-4.4-0.2l-1.8,1.3c-4.1,17.1-15.7,57-23.1,79
		c-2.4,7-3.9,15.3-5.1,22.6c-1.1,6.1-2.4,13.8-3.7,14.9C869.5,422,869,422,868.5,422z M968.8,202.6c-3,0-8.7,2.4-23.4,23.4
		c-10.2,14.4-20.7,32.1-27.8,44.3l1.5,2.6c0.2,0,0.4,0,0.7,0c14.7,0,32.1-8,44.4-20.3c9.8-9.8,15.1-21.4,15.1-32.6
		C979.2,208.5,975.7,202.7,968.8,202.6L968.8,202.6z"/>
	<path fill="#FFFFFF" d="M907.5,169.1c1.3,1.1,3.3,7.4,0.6,13.2c-1,2.2-3.4,6.5-6.2,11.4c-11,19.5-20.9,37.8-20.8,46.8
		c0,3,0.9,6.2,2.6,9.7l5.9,0.7c13.2-16.8,28-33.4,40.6-45.5c20.5-19.7,31.4-24.3,36.8-24.6c0.1,0,0.2,0,0.3,0
		c2.5,0,8.9,1.7,14.8,8.3c9,9.9,10.9,24.5,10.9,34.9c0,16.1-9.2,35.1-24.8,50.7c-17.6,17.7-39.5,27.8-60,27.8
		c-1.4,0-2.9-0.1-4.3-0.1l-3.7,2.7c-4.1,17.1-15.7,56.9-23,78.8c-2.4,7.1-3.9,15.5-5.2,22.9c-0.9,4.9-2,11.5-3,13.6
		c-0.2,0-0.3,0-0.5,0c-4,0-9.6-3.4-14.2-8.7c-5.2-6-8.3-13.2-8.4-19.8c-0.5-29.2,14-75.2,22.6-102.7c1-3.2,1.9-6.2,2.7-8.8l-0.2-2.6
		c-4.2-8.3-6.6-18-6.6-26.5c-0.1-19,9.5-38.2,17.6-51c9.7-15.4,20.5-27,25.4-31C907.4,169.1,907.5,169.1,907.5,169.1 M919.8,274.7
		c15.1,0,33-8.2,45.6-20.8c10.1-10.1,15.6-22.1,15.6-33.9c-0.1-15.7-6.6-19.1-12.1-19.2l-0.1,0c-3.9,0-9.9,2.9-24.9,24.1
		c-10.2,14.5-20.8,32.2-27.8,44.5l3,5.2C919.3,274.7,919.6,274.7,919.8,274.7 M907.5,165.5c-0.7,0-1.5,0.3-2.3,0.9
		c-10.6,8.7-44.4,48.1-44.3,84.8c0,8.4,2.2,18.7,7,28.1c-7.6,24.6-26.1,79.3-25.5,112.6c0.3,16.1,15.6,31.9,26.1,31.9
		c0.7,0,1.4-0.1,2-0.2c3.9-0.9,4.8-23.3,10-38.7c7.3-21.9,19-62,23.1-79.1c1.5,0.1,3,0.2,4.5,0.2c44.4,0,88.4-45.2,88.3-82
		c-0.1-37.1-21.7-46.7-29.3-46.7c-0.2,0-0.3,0-0.5,0c-19.7,1.2-57.8,43.1-80,71.5c-1.4-2.9-2.2-5.7-2.2-8.3
		c0-11.9,22.5-47.8,26.7-56.7C915,175.7,912,165.5,907.5,165.5L907.5,165.5z M919.8,271.2c-0.2,0-0.4,0-0.6,0
		c16.6-28.7,40.7-66.9,49.7-66.9c0,0,0,0,0.1,0h0c6.2,0.1,8.6,6.3,8.6,15.7C977.6,248,944.1,271.2,919.8,271.2L919.8,271.2z"/>
</g>
</svg>
